<svg xmlns="http://www.w3.org/2000/svg" xmlns:xlink="http://www.w3.org/1999/xlink" version="1.1" id="Layer_1" width="272" height="949" viewBox="0 0 272 949" xml:space="preserve" style="enable-background:new 0 0 272 949;overflow:visible"><defs><style>.cls-1{fill:#3c5563;}.cls-2{fill:#fff;}.cls-3{fill:#768d99;}.cls-4{fill:#acbbc2;}.cls-5{fill:#f3a914;}.cls-6{fill:#0a466a;}</style></defs>
<path class="cls-1" d="M20.91,19.85l-.26.27-.73-.73a4.5,4.5,0,1,0-.53.53l.73.73-.27.26L22.94,24,24,22.94Zm-6.53-1.23a3,3,0,1,1,4.24,0A3,3,0,0,1,14.38,18.62Z"/><path class="cls-1" d="M18.39,56.56a4.59,4.59,0,0,1-.18-.48,2.11,2.11,0,0,1-.09-.63,1.41,1.41,0,0,1,.21-.76,3.63,3.63,0,0,1,.53-.66q.32-.32.69-.63a5.1,5.1,0,0,0,.69-.73,4.09,4.09,0,0,0,.53-.9A2.79,2.79,0,0,0,21,50.66a2.51,2.51,0,0,0-.25-1.16,2.41,2.41,0,0,0-.69-.83,3.14,3.14,0,0,0-1-.51A4.51,4.51,0,0,0,17.78,48a5.45,5.45,0,0,0-2.78.78v1.88a3.3,3.3,0,0,1,2.32-1.08,2.73,2.73,0,0,1,.71.09,1.88,1.88,0,0,1,.59.27,1.35,1.35,0,0,1,.4.46,1.34,1.34,0,0,1,.15.64,1.46,1.46,0,0,1-.2.75,3.55,3.55,0,0,1-.5.65c-.2.21-.41.42-.64.63a8.31,8.31,0,0,0-.64.67,3.63,3.63,0,0,0-.5.75,2,2,0,0,0-.2.9,3.63,3.63,0,0,0,.06.64,3.18,3.18,0,0,0,.13.53Zm0,3.12a1,1,0,0,0,.34-.76,1,1,0,0,0-.34-.76,1.2,1.2,0,0,0-1.64,0,1,1,0,0,0-.34.76,1,1,0,0,0,.34.76,1.22,1.22,0,0,0,1.64,0Z"/><path class="cls-1" d="M18,128a9.46,9.46,0,0,0-6,2.14V132H24v-1.87A9.46,9.46,0,0,0,18,128Zm0-2a3,3,0,1,0-3-3A3,3,0,0,0,18,126Z"/><path class="cls-2" d="M24.89,193.23l-2,2-2.12-2.12,2-2a3,3,0,0,0-3.66,3.66l-4.34,4.34A2.93,2.93,0,0,0,14,199a3,3,0,0,0-3,3,3,3,0,0,0,.11.77l2-2,2.12,2.12-2,2A3,3,0,0,0,17,202a2.93,2.93,0,0,0-.11-.77l4.35-4.34A2.92,2.92,0,0,0,22,197a3,3,0,0,0,3-3A3,3,0,0,0,24.89,193.23Z"/><polygon class="cls-2" points="25 341 11 341 11 343 25 343 25 341"/><path class="cls-2" d="M11,372v2H25v-2Zm0,7H25v-2H11Zm0,5H25v-2H11Z"/><polygon class="cls-2" points="25 305 19 305 19 299 17 299 17 305 11 305 11 307 17 307 17 313 19 313 19 307 25 307 25 305"/><path class="cls-2" d="M18.7,409.25a1.09,1.09,0,0,0,.9.33,1.25,1.25,0,0,0,1-.47,1.66,1.66,0,0,0,.37-1,1,1,0,0,0-.31-.77,1.16,1.16,0,0,0-.84-.3,1.36,1.36,0,0,0-1,.42,1.4,1.4,0,0,0-.4,1A1.27,1.27,0,0,0,18.7,409.25Zm-3.35,4.92a5.11,5.11,0,0,1,1.79-.91c.16,0,.24.09.24.26a23.46,23.46,0,0,1-.86,3.58c-.26.91-.43,1.55-.51,1.92a4.79,4.79,0,0,0-.12,1,1.19,1.19,0,0,0,.2.71.68.68,0,0,0,.59.27,2.3,2.3,0,0,0,.74-.15,9.27,9.27,0,0,0,1.42-.76q1-.61,1.71-1.08l0-.12-.23-.38h-.12a5.31,5.31,0,0,1-1.64.88.26.26,0,0,1-.2-.1.34.34,0,0,1-.09-.23,24,24,0,0,1,.89-3.53c.34-1.18.56-2,.67-2.41a4.52,4.52,0,0,0,.16-1.05.74.74,0,0,0-.18-.52.57.57,0,0,0-.44-.2,3.73,3.73,0,0,0-1.58.54A27.93,27.93,0,0,0,15,413.71l0,.12.2.33Z"/><path class="cls-3" d="M22,486a4,4,0,0,0-2-3.44v6.87A4,4,0,0,0,22,486Z"/><polygon class="cls-3" points="11 483.38 11 488.63 13.56 488.63 18 493 18 479 13.56 483.38 11 483.38"/><path class="cls-3" d="M20,479.31v1.58a5.49,5.49,0,0,1,0,10.23v1.58a7,7,0,0,0,0-13.39Z"/><path class="cls-3" d="M23.5,522a5.44,5.44,0,0,1-.13,1.14l1.22,1.22A6.91,6.91,0,0,0,25,522a7,7,0,0,0-5-6.69v1.58A5.49,5.49,0,0,1,23.5,522ZM20,518.56v1.21l2,2A4,4,0,0,0,20,518.56Zm4.7,8.74-12-12-1.41,1.41,2.48,2.48-.2.2H11v5.25h2.56L18,529v-5.59l2,2v0h0l1.09,1.09a5.51,5.51,0,0,1-1.1.6v1.58a7,7,0,0,0,2.17-1.11l1.13,1.13,1.41-1.41h0ZM18,515l-1.4,1.38,1.4,1.4Z"/><path class="cls-3" d="M18,565a2,2,0,0,0,2-2H16A2,2,0,0,0,18,565Zm4-5.37v-3a4,4,0,0,0-3-3.86V552a1,1,0,0,0-2,0v.77a4,4,0,0,0-3,3.86v3l-2,2H24Z"/><path class="cls-3" d="M22,592.63a4,4,0,0,0-3-3.86V588a1,1,0,0,0-2,0v.77h0l5,5ZM18,601a2,2,0,0,0,2-2H16A2,2,0,0,0,18,601Zm7-1.41h0L12.39,587,11,588.4l3.16,3.16a4,4,0,0,0-.16,1.06v3l-2,2h8.22L23.6,601l1.4-1.4Z"/><path class="cls-3" d="M24,628a2,2,0,1,0,2,2A2,2,0,0,0,24,628Zm-12,0a2,2,0,1,0,2,2A2,2,0,0,0,12,628Zm6,0a2,2,0,1,0,2,2A2,2,0,0,0,18,628Z"/><path class="cls-3" d="M24.14,668,18,662l-6.14,6a1.16,1.16,0,0,0,0,1.68,1.24,1.24,0,0,0,1.73,0l4.42-4.3,4.42,4.3a1.24,1.24,0,0,0,1.73,0A1.16,1.16,0,0,0,24.14,668Z"/><path class="cls-3" d="M11.86,700,18,706l6.14-6a1.16,1.16,0,0,0,0-1.68,1.25,1.25,0,0,0-1.73,0L18,702.64l-4.42-4.3a1.25,1.25,0,0,0-1.73,0A1.16,1.16,0,0,0,11.86,700Z"/><path class="cls-4" d="M18,729a9,9,0,1,0,9,9A9,9,0,0,0,18,729Zm1,14H17v-6h2Zm0-8H17v-2h2Z"/><rect class="cls-4" x="17" y="811" width="2" height="2"/><rect class="cls-4" x="13" y="811" width="2" height="2"/><rect class="cls-4" x="13" y="807" width="2" height="2"/><rect class="cls-4" x="21" y="807" width="2" height="2"/><rect class="cls-4" x="21" y="811" width="2" height="2"/><rect class="cls-4" x="17" y="807" width="2" height="2"/><path class="cls-4" d="M19,783v-2h2v2Zm0-6h2v2H19Zm0-4h2v2H19Zm0-4h2v2H19Zm0-4h2v2H19Zm-4,16h2v2H15Zm0-4h2v2H15Zm0-4h2v2H15Zm0-4h2v2H15Zm0-4h2v2H15Z"/><path class="cls-3" d="M23.77,841.74a.77.77,0,0,0-1.12,0l-6.51,6.78-2.79-2.9a.77.77,0,0,0-1.12,0,.84.84,0,0,0,0,1.16l3.35,3.49a.77.77,0,0,0,1.12,0l7.07-7.36A.84.84,0,0,0,23.77,841.74Z"/><path class="cls-1" d="M23,84H13a1,1,0,0,0-1,1V95a1,1,0,0,0,1,1H23a1,1,0,0,0,1-1V85A1,1,0,0,0,23,84Zm-2,9.82H15V92.59l3.54-4.81H15.19V86.18h5.7v1.35l-3.44,4.69H21Z"/><polygon class="cls-2" points="25 227 19.63 227 21.63 229 19 231.64 20.36 233 22.99 230.37 25 232.37 25 227"/><polygon class="cls-2" points="15.64 235 13.01 237.63 11 235.63 11 241 16.37 241 14.37 239 17 236.36 15.64 235"/><polygon class="cls-2" points="25 264.36 23.64 263 21.01 265.63 19 263.63 19 269 24.37 269 22.37 267 25 264.36"/><polygon class="cls-2" points="13.63 273 11 275.64 12.36 277 14.99 274.37 17 276.37 17 271 11.63 271 13.63 273"/><path class="cls-1" d="M22.35,158.06l-1.06,1.06a4.32,4.32,0,0,1,1.21,3,4.5,4.5,0,0,1-9,0,4.32,4.32,0,0,1,1.21-3l-1.06-1.06a5.79,5.79,0,0,0-1.65,4,6,6,0,0,0,12,0A5.8,5.8,0,0,0,22.35,158.06ZM19,156H17v6h2Z"/><path class="cls-2" d="M96.39,56.56a4.59,4.59,0,0,1-.18-.48,2.11,2.11,0,0,1-.09-.63,1.41,1.41,0,0,1,.21-.76,3.63,3.63,0,0,1,.53-.66q.32-.32.69-.63a5.1,5.1,0,0,0,.69-.73,4.09,4.09,0,0,0,.53-.9A2.79,2.79,0,0,0,99,50.66a2.51,2.51,0,0,0-.25-1.16,2.41,2.41,0,0,0-.69-.83,3.14,3.14,0,0,0-1-.51A4.51,4.51,0,0,0,95.78,48a5.45,5.45,0,0,0-2.78.78v1.88a3.3,3.3,0,0,1,2.32-1.08,2.73,2.73,0,0,1,.71.09,1.88,1.88,0,0,1,.59.27,1.35,1.35,0,0,1,.4.46,1.34,1.34,0,0,1,.15.64,1.46,1.46,0,0,1-.2.75,3.55,3.55,0,0,1-.5.65c-.2.21-.41.42-.64.63a8.31,8.31,0,0,0-.64.67,3.63,3.63,0,0,0-.5.75,2,2,0,0,0-.2.9,3.63,3.63,0,0,0,.06.64,3.18,3.18,0,0,0,.13.53Zm0,3.12a1,1,0,0,0,.34-.76,1,1,0,0,0-.34-.76,1.2,1.2,0,0,0-1.64,0,1,1,0,0,0-.34.76,1,1,0,0,0,.34.76,1.22,1.22,0,0,0,1.64,0Z"/><path class="cls-2" d="M96,128a9.46,9.46,0,0,0-6,2.14V132h12v-1.87A9.46,9.46,0,0,0,96,128Zm0-2a3,3,0,1,0-3-3A3,3,0,0,0,96,126Z"/><path class="cls-2" d="M101,84H91a1,1,0,0,0-1,1V95a1,1,0,0,0,1,1h10a1,1,0,0,0,1-1V85A1,1,0,0,0,101,84Zm-2,9.82H93V92.59l3.54-4.81H93.19V86.18h5.7v1.35l-3.44,4.69H99Z"/><path class="cls-2" d="M100.35,158.06l-1.06,1.06a4.32,4.32,0,0,1,1.21,3,4.5,4.5,0,0,1-9,0,4.32,4.32,0,0,1,1.21-3l-1.06-1.06a5.79,5.79,0,0,0-1.65,4,6,6,0,0,0,12,0A5.8,5.8,0,0,0,100.35,158.06ZM97,156H95v6h2Z"/><path class="cls-2" d="M22.76,452.13a5.25,5.25,0,1,1-1.07-5.82h0l-2.82,2.82H25V443l-2.06,2.06h0a7,7,0,1,0,1.71,7.06Z"/><path class="cls-4" d="M61.5,837h-15a1.5,1.5,0,0,0-1.5,1.5v15a1.5,1.5,0,0,0,1.5,1.5h15a1.5,1.5,0,0,0,1.5-1.5v-15A1.5,1.5,0,0,0,61.5,837ZM61,853H47V841H61Zm-10-9H49v2h2Zm8,0H57v2h2Zm-4,0H53v2h2Zm0,4H53v2h2Zm-4,0H49v2h2Zm8,0H57v2h2Z"/><path class="cls-5" d="M58.79,807.22,56.6,809.4l-2-2,2.19-2.18a3.4,3.4,0,0,0-4.3,4.55L49,813.23,50.77,815l3.48-3.48a3.4,3.4,0,0,0,4.54-4.3Z"/><path class="cls-3" d="M55,777v-5.21a2.5,2.5,0,1,0-2,0V777H50l4,4,4-4Z"/><path class="cls-3" d="M53,735v5.21a2.5,2.5,0,1,0,2,0V735h3l-4-4-4,4Z"/><path class="cls-3" d="M61.68,695.71a1,1,0,0,0-1.54,0l-8.45,8.91-3.84-4.05a1,1,0,0,0-1.53,0,1.18,1.18,0,0,0,0,1.62l4.6,4.86a1.07,1.07,0,0,0,1.55,0l9.21-9.71A1.19,1.19,0,0,0,61.68,695.71Z"/><path class="cls-2" d="M98.91,19.85l-.26.27-.73-.73a4.5,4.5,0,1,0-.53.53l.73.73-.27.26L100.94,24,102,22.94Zm-6.53-1.23a3,3,0,1,1,4.24,0A3,3,0,0,1,92.38,18.62Z"/><path class="cls-6" d="M2.68,874.71a12.17,12.17,0,0,1,.88-4.84,10.28,10.28,0,0,1,2.31-3.42,9.57,9.57,0,0,1,6.58-2.69,9.61,9.61,0,0,1,4.18.87A9,9,0,0,1,19.7,867a10.23,10.23,0,0,1,1.88,3.49,13.82,13.82,0,0,1,.64,4.23,12.42,12.42,0,0,1-.78,4.53,10.54,10.54,0,0,1-2.13,3.45,9.32,9.32,0,0,1-6.86,3,9.7,9.7,0,0,1-3.81-.75,9,9,0,0,1-3.1-2.16,10.22,10.22,0,0,1-2.09-3.43A12.92,12.92,0,0,1,2.68,874.71Zm3,0a12,12,0,0,0,.51,3.6,8.76,8.76,0,0,0,1.42,2.8,6.59,6.59,0,0,0,2.16,1.83,5.78,5.78,0,0,0,2.73.65,5.7,5.7,0,0,0,2.8-.7A6.66,6.66,0,0,0,17.4,881a9.11,9.11,0,0,0,1.38-2.81,11.92,11.92,0,0,0,.49-3.48,11.76,11.76,0,0,0-.54-3.67,8.84,8.84,0,0,0-1.46-2.8,6.35,6.35,0,0,0-2.18-1.77,6,6,0,0,0-5.28,0,6.33,6.33,0,0,0-2.17,1.77A8.83,8.83,0,0,0,6.17,871,11.75,11.75,0,0,0,5.64,874.69Z"/><path class="cls-6" d="M28.43,870.26a4,4,0,0,1,.91,1.55,6,6,0,0,1,.22,1.64v11.8H26.78V873.91a15.62,15.62,0,0,0-.1-1.73,17.22,17.22,0,0,0-.33-1.93Zm7.86,4.09a2.81,2.81,0,0,0-.45-1.65,1.54,1.54,0,0,0-1.35-.64,2.27,2.27,0,0,0-.61.07l-.64.16a3.32,3.32,0,0,1-1.57,0,2.72,2.72,0,0,1-1.33-.81,12.86,12.86,0,0,1,2.58-1.22,6.37,6.37,0,0,1,1.83-.32,6.13,6.13,0,0,1,1.65.22,3.29,3.29,0,0,1,1.38.77,3.82,3.82,0,0,1,.94,1.45,6.23,6.23,0,0,1,.35,2.23v10.61H36.29Z"/><path class="cls-6" d="M53.11,876.06a4.18,4.18,0,0,0-.12-1.57,3.74,3.74,0,0,0-.62-1.28,2.93,2.93,0,0,0-1-.86,2.88,2.88,0,0,0-1.31-.3,3.61,3.61,0,0,0-3,1.45,6.56,6.56,0,0,0-1.15,4.15,7.54,7.54,0,0,0,.35,2.36,5.68,5.68,0,0,0,1,1.83A4.39,4.39,0,0,0,48.7,883a4,4,0,0,0,1.83.42,8.46,8.46,0,0,0,1.9-.2,9.59,9.59,0,0,0,2.13-.84l.73,1.91a9.8,9.8,0,0,1-2.7,1,12.8,12.8,0,0,1-2.35.25,6.91,6.91,0,0,1-2.9-.59,6.39,6.39,0,0,1-2.22-1.65,7.47,7.47,0,0,1-1.41-2.51,9.75,9.75,0,0,1-.49-3.16,9.56,9.56,0,0,1,.49-3.18A6.78,6.78,0,0,1,45.14,872a6.23,6.23,0,0,1,2.23-1.54,7.71,7.71,0,0,1,3-.54,5.17,5.17,0,0,1,4.5,2.45,6,6,0,0,1,.86,2.57,7.63,7.63,0,0,1-.3,3H47a3.88,3.88,0,0,1,.87-1.39,2.16,2.16,0,0,1,1.6-.55Z"/><path class="cls-6" d="M60,885.25V864.17h2.75v21.08Zm8.5-12.56L76,885.25H72.63L67,875.19l-.2-.52-.26.52-2.29,3a2.91,2.91,0,0,1-.25-1,5.65,5.65,0,0,1,.06-1.26,6.23,6.23,0,0,1,.36-1.33,5.9,5.9,0,0,1,.7-1.28l6.76-9.13H75Z"/><path class="cls-6" d="M88.06,876.06a4.18,4.18,0,0,0-.12-1.57,3.74,3.74,0,0,0-.62-1.28,2.93,2.93,0,0,0-1-.86,2.88,2.88,0,0,0-1.31-.3,3.61,3.61,0,0,0-3,1.45,6.56,6.56,0,0,0-1.15,4.15,7.54,7.54,0,0,0,.35,2.36,5.68,5.68,0,0,0,1,1.83A4.39,4.39,0,0,0,83.65,883a4,4,0,0,0,1.83.42,8.46,8.46,0,0,0,1.9-.2,9.59,9.59,0,0,0,2.13-.84l.73,1.91a9.8,9.8,0,0,1-2.7,1,12.8,12.8,0,0,1-2.35.25,6.91,6.91,0,0,1-2.9-.59,6.39,6.39,0,0,1-2.22-1.65,7.47,7.47,0,0,1-1.41-2.51,9.75,9.75,0,0,1-.49-3.16,9.56,9.56,0,0,1,.49-3.18A6.78,6.78,0,0,1,80.08,872a6.23,6.23,0,0,1,2.23-1.54,7.71,7.71,0,0,1,3-.54,5.17,5.17,0,0,1,4.5,2.45,6,6,0,0,1,.86,2.57,7.63,7.63,0,0,1-.3,3H81.91a3.88,3.88,0,0,1,.87-1.39,2.16,2.16,0,0,1,1.6-.55Z"/><path class="cls-6" d="M103.83,876.06a4.18,4.18,0,0,0-.12-1.57,3.74,3.74,0,0,0-.62-1.28,2.93,2.93,0,0,0-1-.86,2.88,2.88,0,0,0-1.31-.3,3.61,3.61,0,0,0-3,1.45,6.56,6.56,0,0,0-1.15,4.15A7.54,7.54,0,0,0,97,880a5.68,5.68,0,0,0,1,1.83A4.39,4.39,0,0,0,99.42,883a4,4,0,0,0,1.83.42,8.46,8.46,0,0,0,1.9-.2,9.59,9.59,0,0,0,2.13-.84l.73,1.91a9.8,9.8,0,0,1-2.7,1,12.8,12.8,0,0,1-2.35.25,6.91,6.91,0,0,1-2.9-.59,6.39,6.39,0,0,1-2.22-1.65,7.47,7.47,0,0,1-1.41-2.51,9.75,9.75,0,0,1-.49-3.16,9.56,9.56,0,0,1,.49-3.18A6.78,6.78,0,0,1,95.86,872a6.23,6.23,0,0,1,2.23-1.54,7.71,7.71,0,0,1,3-.54,5.17,5.17,0,0,1,4.5,2.45,6,6,0,0,1,.86,2.57,7.63,7.63,0,0,1-.3,3H97.68a3.88,3.88,0,0,1,.87-1.39,2.16,2.16,0,0,1,1.6-.55Z"/><path class="cls-6" d="M124,877.83a8.37,8.37,0,0,1-.57,3.15,7.57,7.57,0,0,1-1.49,2.39,6.55,6.55,0,0,1-2.15,1.52,6.2,6.2,0,0,1-2.52.54,10.08,10.08,0,0,1-1.39-.1,7.22,7.22,0,0,1-1.51-.39,3.45,3.45,0,0,1,1.06-1.17,2.74,2.74,0,0,1,1.67-.42,3.43,3.43,0,0,0,1.48-.28,3.37,3.37,0,0,0,1.29-1,5.29,5.29,0,0,0,.91-1.73,8,8,0,0,0,.35-2.52,10.37,10.37,0,0,0-.25-2.32,5.43,5.43,0,0,0-.75-1.83,3.86,3.86,0,0,0-1.25-1.19,3.28,3.28,0,0,0-1.7-.44,4.11,4.11,0,0,0-1.94.51,6.23,6.23,0,0,0-1.86,1.61v18.07h-2.67v-17a26,26,0,0,0-.15-3,19.36,19.36,0,0,0-.32-2h1.94a3.09,3.09,0,0,1,.59.65,4.34,4.34,0,0,1,.42.91l.06.46.23-.52a5,5,0,0,1,2.07-1.41,6.49,6.49,0,0,1,2.07-.39,5.74,5.74,0,0,1,4.7,2.28,7.54,7.54,0,0,1,1.23,2.49A10.94,10.94,0,0,1,124,877.83Z"/><path class="cls-6" d="M136.95,876.06a4.18,4.18,0,0,0-.12-1.57,3.74,3.74,0,0,0-.62-1.28,2.93,2.93,0,0,0-1-.86,2.88,2.88,0,0,0-1.31-.3,3.61,3.61,0,0,0-3,1.45,6.56,6.56,0,0,0-1.15,4.15,7.54,7.54,0,0,0,.35,2.36,5.68,5.68,0,0,0,1,1.83,4.39,4.39,0,0,0,1.46,1.19,4,4,0,0,0,1.83.42,8.46,8.46,0,0,0,1.9-.2,9.59,9.59,0,0,0,2.13-.84l.73,1.91a9.8,9.8,0,0,1-2.7,1,12.8,12.8,0,0,1-2.35.25,6.91,6.91,0,0,1-2.9-.59,6.39,6.39,0,0,1-2.22-1.65,7.47,7.47,0,0,1-1.41-2.51,9.75,9.75,0,0,1-.49-3.16,9.56,9.56,0,0,1,.49-3.18A6.78,6.78,0,0,1,129,872a6.23,6.23,0,0,1,2.23-1.54,7.71,7.71,0,0,1,3-.54,5.17,5.17,0,0,1,4.5,2.45,6,6,0,0,1,.86,2.57,7.63,7.63,0,0,1-.3,3H130.8a3.88,3.88,0,0,1,.87-1.39,2.16,2.16,0,0,1,1.6-.55Z"/><path class="cls-6" d="M145.27,870.26a2.88,2.88,0,0,1,.65,1.06,11.33,11.33,0,0,1,.33,1.26v.52l.23-.52a5,5,0,0,1,1.62-1.81,3.9,3.9,0,0,1,2.23-.71,5.53,5.53,0,0,1,1.42.23l-.35,2.26a5.3,5.3,0,0,0-.8-.14l-.59,0a3.47,3.47,0,0,0-1.33.28,3.27,3.27,0,0,0-1.19.86,4.5,4.5,0,0,0-.86,1.51,6.62,6.62,0,0,0-.33,2.23v8h-2.58v-9.92q0-1.33-.12-2.7a17.54,17.54,0,0,0-.35-2.38Z"/><path class="cls-6" d="M2.46,917.1a21.82,21.82,0,0,1,1.59-8.67,18.44,18.44,0,0,1,4.13-6.13A17.15,17.15,0,0,1,20,897.47,17.24,17.24,0,0,1,27.48,899,16.08,16.08,0,0,1,33,903.26a18.34,18.34,0,0,1,3.38,6.26,24.79,24.79,0,0,1,1.14,7.58,22.27,22.27,0,0,1-1.4,8.13,18.91,18.91,0,0,1-3.82,6.18A16.72,16.72,0,0,1,20,936.73a17.39,17.39,0,0,1-6.84-1.35,16.21,16.21,0,0,1-5.56-3.87,18.36,18.36,0,0,1-3.74-6.15A23.17,23.17,0,0,1,2.46,917.1Zm5.3,0a21.53,21.53,0,0,0,.91,6.45,15.7,15.7,0,0,0,2.55,5,11.82,11.82,0,0,0,3.87,3.28A10.39,10.39,0,0,0,20,933a10.21,10.21,0,0,0,5-1.25,12,12,0,0,0,3.85-3.38,16.32,16.32,0,0,0,2.47-5,21.38,21.38,0,0,0,.88-6.24,21.08,21.08,0,0,0-1-6.58,15.88,15.88,0,0,0-2.63-5,11.37,11.37,0,0,0-3.9-3.17,10.8,10.8,0,0,0-9.46,0,11.36,11.36,0,0,0-3.9,3.17,15.84,15.84,0,0,0-2.63,5A21.07,21.07,0,0,0,7.77,917.07Z"/><path class="cls-6" d="M48.64,909.12a7.22,7.22,0,0,1,1.64,2.78,10.73,10.73,0,0,1,.39,2.94V936h-5V915.67a28.15,28.15,0,0,0-.18-3.09,31,31,0,0,0-.6-3.46Zm14.09,7.33a5,5,0,0,0-.81-3,2.76,2.76,0,0,0-2.42-1.14,4.13,4.13,0,0,0-1.09.13l-1.14.29a5.94,5.94,0,0,1-2.81.05,4.87,4.87,0,0,1-2.39-1.46,23.07,23.07,0,0,1,4.63-2.18A11.45,11.45,0,0,1,60,908.6a11,11,0,0,1,3,.39,5.91,5.91,0,0,1,2.47,1.38A6.84,6.84,0,0,1,67.1,913a11.18,11.18,0,0,1,.62,4v19h-5Z"/><path class="cls-6" d="M92.89,919.52a7.49,7.49,0,0,0-.21-2.81,6.73,6.73,0,0,0-1.12-2.29,5.26,5.26,0,0,0-1.85-1.53,5.17,5.17,0,0,0-2.34-.55,6.48,6.48,0,0,0-5.33,2.6Q80,917.54,80,922.38a13.53,13.53,0,0,0,.62,4.24,10.17,10.17,0,0,0,1.74,3.28A7.92,7.92,0,0,0,85,932a7.22,7.22,0,0,0,3.28.75,15.18,15.18,0,0,0,3.41-.36,17.18,17.18,0,0,0,3.82-1.51l1.3,3.43A17.54,17.54,0,0,1,92,936.08a23,23,0,0,1-4.21.44,12.41,12.41,0,0,1-5.2-1.07,11.45,11.45,0,0,1-4-3A13.41,13.41,0,0,1,76,928a17.49,17.49,0,0,1-.88-5.67,17.14,17.14,0,0,1,.88-5.69,12.16,12.16,0,0,1,2.55-4.32,11.2,11.2,0,0,1,4-2.76,13.85,13.85,0,0,1,5.3-1A9.27,9.27,0,0,1,96,913a10.82,10.82,0,0,1,1.53,4.6,13.69,13.69,0,0,1-.55,5.41H81.87a7,7,0,0,1,1.56-2.5,3.87,3.87,0,0,1,2.86-1Z"/><path class="cls-6" d="M105.16,936V898.2h4.94V936Zm15.24-22.52L133.87,936h-6L117.8,918l-.36-.94L117,918l-4.11,5.41a5.25,5.25,0,0,1-.44-1.85,10.13,10.13,0,0,1,.1-2.26,11.16,11.16,0,0,1,.65-2.39,10.53,10.53,0,0,1,1.25-2.29l12.12-16.38h5.62Z"/><path class="cls-6" d="M155.55,919.52a7.49,7.49,0,0,0-.21-2.81,6.73,6.73,0,0,0-1.12-2.29,5.26,5.26,0,0,0-1.85-1.53,5.17,5.17,0,0,0-2.34-.55,6.48,6.48,0,0,0-5.33,2.6q-2.05,2.6-2.05,7.44a13.53,13.53,0,0,0,.62,4.24,10.17,10.17,0,0,0,1.74,3.28,7.92,7.92,0,0,0,2.63,2.13,7.22,7.22,0,0,0,3.28.75,15.18,15.18,0,0,0,3.41-.36,17.18,17.18,0,0,0,3.82-1.51l1.3,3.43a17.54,17.54,0,0,1-4.84,1.74,23,23,0,0,1-4.21.44,12.41,12.41,0,0,1-5.2-1.07,11.45,11.45,0,0,1-4-3,13.41,13.41,0,0,1-2.52-4.5,17.49,17.49,0,0,1-.88-5.67,17.14,17.14,0,0,1,.88-5.69,12.16,12.16,0,0,1,2.55-4.32,11.2,11.2,0,0,1,4-2.76,13.85,13.85,0,0,1,5.3-1,9.27,9.27,0,0,1,8.06,4.39,10.82,10.82,0,0,1,1.53,4.6,13.69,13.69,0,0,1-.55,5.41H144.53a7,7,0,0,1,1.56-2.5,3.87,3.87,0,0,1,2.86-1Z"/><path class="cls-6" d="M183.84,919.52a7.49,7.49,0,0,0-.21-2.81,6.73,6.73,0,0,0-1.12-2.29,5.26,5.26,0,0,0-1.85-1.53,5.17,5.17,0,0,0-2.34-.55,6.48,6.48,0,0,0-5.33,2.6q-2.05,2.6-2.05,7.44a13.53,13.53,0,0,0,.62,4.24,10.17,10.17,0,0,0,1.74,3.28,7.92,7.92,0,0,0,2.63,2.13,7.22,7.22,0,0,0,3.28.75,15.18,15.18,0,0,0,3.41-.36,17.18,17.18,0,0,0,3.82-1.51l1.3,3.43a17.54,17.54,0,0,1-4.84,1.74,23,23,0,0,1-4.21.44,12.41,12.41,0,0,1-5.2-1.07,11.45,11.45,0,0,1-4-3A13.41,13.41,0,0,1,167,928a17.49,17.49,0,0,1-.88-5.67,17.14,17.14,0,0,1,.88-5.69,12.16,12.16,0,0,1,2.55-4.32,11.2,11.2,0,0,1,4-2.76,13.85,13.85,0,0,1,5.3-1,9.27,9.27,0,0,1,8.06,4.39,10.82,10.82,0,0,1,1.53,4.6,13.69,13.69,0,0,1-.55,5.41H172.81a7,7,0,0,1,1.56-2.5,3.87,3.87,0,0,1,2.86-1Z"/><path class="cls-6" d="M219.93,922.69a15,15,0,0,1-1,5.64,13.57,13.57,0,0,1-2.68,4.29,11.73,11.73,0,0,1-3.85,2.73,11.09,11.09,0,0,1-4.52,1,18,18,0,0,1-2.5-.18,13,13,0,0,1-2.7-.7,6.18,6.18,0,0,1,1.9-2.11,4.9,4.9,0,0,1,3-.75,6.17,6.17,0,0,0,2.65-.49,6.05,6.05,0,0,0,2.31-1.77,9.49,9.49,0,0,0,1.64-3.09,14.4,14.4,0,0,0,.62-4.52,18.6,18.6,0,0,0-.44-4.16,9.74,9.74,0,0,0-1.35-3.28,6.89,6.89,0,0,0-2.24-2.13,5.88,5.88,0,0,0-3-.78,7.36,7.36,0,0,0-3.48.91,11.18,11.18,0,0,0-3.33,2.89v32.4h-4.78V918a46.67,46.67,0,0,0-.26-5.33,34.43,34.43,0,0,0-.57-3.56h3.48a5.52,5.52,0,0,1,1.07,1.17,7.76,7.76,0,0,1,.75,1.64l.1.83.42-.94a9,9,0,0,1,3.72-2.52,11.62,11.62,0,0,1,3.72-.7,10.29,10.29,0,0,1,8.42,4.08,13.52,13.52,0,0,1,2.21,4.47A19.64,19.64,0,0,1,219.93,922.69Z"/><path class="cls-6" d="M243.22,919.52a7.49,7.49,0,0,0-.21-2.81,6.73,6.73,0,0,0-1.12-2.29,5.26,5.26,0,0,0-1.85-1.53,5.17,5.17,0,0,0-2.34-.55,6.48,6.48,0,0,0-5.33,2.6q-2.05,2.6-2.05,7.44a13.53,13.53,0,0,0,.62,4.24,10.17,10.17,0,0,0,1.74,3.28,7.92,7.92,0,0,0,2.63,2.13,7.22,7.22,0,0,0,3.28.75,15.18,15.18,0,0,0,3.41-.36,17.18,17.18,0,0,0,3.82-1.51l1.3,3.43a17.54,17.54,0,0,1-4.84,1.74,23,23,0,0,1-4.21.44,12.41,12.41,0,0,1-5.2-1.07,11.45,11.45,0,0,1-4-3,13.41,13.41,0,0,1-2.52-4.5,17.49,17.49,0,0,1-.88-5.67,17.14,17.14,0,0,1,.88-5.69,12.16,12.16,0,0,1,2.55-4.32,11.2,11.2,0,0,1,4-2.76,13.85,13.85,0,0,1,5.3-1,9.27,9.27,0,0,1,8.06,4.39,10.82,10.82,0,0,1,1.53,4.6,13.69,13.69,0,0,1-.55,5.41H232.2a7,7,0,0,1,1.56-2.5,3.87,3.87,0,0,1,2.86-1Z"/><path class="cls-6" d="M258.15,909.12a5.16,5.16,0,0,1,1.17,1.9,20.44,20.44,0,0,1,.6,2.26v.94l.42-.94a8.89,8.89,0,0,1,2.91-3.25,7,7,0,0,1,4-1.27,9.89,9.89,0,0,1,2.55.42l-.62,4.06a9.61,9.61,0,0,0-1.43-.26q-.6-.05-1.07-.05a6.22,6.22,0,0,0-2.39.49,5.87,5.87,0,0,0-2.13,1.53,8.07,8.07,0,0,0-1.53,2.7,11.88,11.88,0,0,0-.6,4V936h-4.63V918.22q0-2.39-.21-4.84a31.26,31.26,0,0,0-.62-4.26Z"/></svg>